<?xml version="1.0" encoding="UTF-8" standalone="no"?>
<svg
   xmlns:svg="http://www.w3.org/2000/svg"
   xmlns="http://www.w3.org/2000/svg"
   xmlns:xlink="http://www.w3.org/1999/xlink"
   version="1.1"
   width="400"
   height="400"
   viewBox="0 0 400 400">
  <defs/>
  <g id="puppet">
    <g id="m3">
      <circle
         r="0"
         cy="136.3"
         cx="186.9"
         id="pivot_m3"
         style="opacity:1;fill:#ff4b00;fill-opacity:1;stroke:none;stroke-width:1;stroke-miterlimit:10;stroke-dasharray:none;stroke-opacity:1" />
      <path
         style="fill:#000000;fill-opacity:1"
         d="m 187.3,209.2 c -8.2,-2.3 -10.1,-19.7 -11,-29.4 -0.5,-5.9 -0.9,-8.4 -1.4,-8.4 -4.5,1 -3.4,-5.9 -3.4,-7.2 0.4,-21.8 3.2,-28.9 10.5,-33.4 20.6,-6.4 24.4,23.4 26.3,36.6 0.3,2.1 0.2,2.2 -1.7,2.5 l -2,0.4 -0.3,5.2 c -0.4,9.6 -0.7,20.1 -4.7,28.3 -2.7,5.3 -6.1,6.6 -12.2,5.5 z"/>
      <path
         style="fill:#1a1a1a"
         d="m 202.9,170.6 c -1.6,0.2 -2.1,0.3 -6.6,0.8 -6.2,0.7 -12.9,0.9 -19.2,1 l 0.3,3.8 c 0.7,8.5 2.6,20.8 4.9,26.3 1.6,3 3.4,4.9 8.1,5.1 12.1,0 12.4,-26.5 12.4,-36.9 z"/>
      <path
         style="fill:#0044aa"
         d="m 198.5,168.7 c 3.2,-0.4 6,-0.9 6.4,-1.1 0.4,-0.2 0.5,-1.2 0.4,-2.3 -0.2,-1 -0.4,-3.3 -0.6,-5.1 -1,-10.2 -5.5,-27.1 -17.3,-28 -3.5,-0.2 -7.2,2.6 -9.5,7.3 -2.1,4.3 -3,9.8 -3.6,21.6 l -0.4,7.8 1.7,0.3 c 3.5,0.5 17.3,0.2 22.9,-0.5 z"/>
      <g id="m4">
        <circle
           style="opacity:1;fill:#ff4b00;fill-opacity:1;stroke:none;stroke-width:1;stroke-miterlimit:10;stroke-dasharray:none;stroke-opacity:1"
           id="pivot_m4"
           cx="190.5"
           cy="194.9"
           r="0" />
        <path
           d="m 178.9,281.7 c -3.2,-1.7 -8.2,-9.2 -7.8,-11.1 0.2,-0.8 1.6,-1.8 4.2,-3 4.9,-2.2 6.7,-4.3 7.3,-8.3 0.8,-5.6 0.8,-13.7 0,-18.3 -0.5,-2.5 -0.9,-5.5 -1,-6.5 -0.1,-1 -0.9,-4.6 -1.8,-8.1 -0.9,-3.4 -1.8,-8.7 -2.2,-11.7 -0.7,-8.3 1.3,-23.9 8.9,-26.2 2.2,-0.6 4.4,-0.8 6.3,-0.5 7.1,1.1 10.3,5.6 12.5,17.9 1.4,7.5 1.2,11.5 -1.1,27.1 -2.1,14.1 -2.1,14.4 -1.1,17.9 1.7,5.9 2.3,15 1.3,18.9 -2.9,11 -15,17.5 -25.7,11.9 z"
           style="fill:#000000" />
        <path
           d="m 187.8,281 c 3.4,-0.3 7.5,-2 8.8,-3.5 0.3,-0.4 0.9,-1 1.4,-1.3 3.4,-2.6 5.2,-10.9 3.9,-18.4 -0.5,-2.8 -1.3,-6.3 -1.7,-7.9 -0.8,-2.7 -0.7,-3.8 1.3,-17.6 1.2,-8.1 2.2,-16.4 2.1,-18.3 -0,-4.5 -2.2,-14.5 -3.9,-18 -3.5,-7.4 -11.7,-8.8 -15.9,-2.8 -2.9,6.8 -4.3,12.4 -3.5,20.9 2,9.9 3.8,17.8 5.3,26.8 0.5,3.2 0.9,7.9 0.8,10.3 -1,12.4 -4.2,15.8 -12.4,20.5 4,7.1 7.5,9.9 13.8,9.4 z"
           style="fill:#1a1a1a" />
      </g>
    </g>
    <g id="m8">
      <circle
         r="0"
         cy="236.7"
         cx="184.4"
         id="pivot_m8"
         style="opacity:1;fill:#ff4b00;fill-opacity:1;stroke:none;stroke-width:1;stroke-miterlimit:10;stroke-dasharray:none;stroke-opacity:1" />
      <path
         style="fill:#000000"
         d="m 172.7,328.6 c -10.7,-8.2 -9.3,-31.1 -12.1,-39.6 -3.7,-1.1 -6.2,-1.4 -6.5,-3.5 -0,-25.4 2.5,-44.3 17.4,-52.4 7.5,-4.7 20.8,-2.8 25.5,0.7 3.7,2.7 13,7.3 17.6,41 0.9,7.4 0.4,10.7 -1.4,11.8 -1.9,1.5 -4.2,1.9 -6.1,2.7 -0,2.9 -2.4,26.9 -5.1,32.8 -4.4,9.9 -20.9,11.6 -29.3,6.5 z"/>
      <path
         style="fill:#1a1a1a"
         d="m 204.4,295.2 c 0.3,-4.9 -0.5,-5.7 -1.5,-5.4 -18.2,2.6 -28.8,1.2 -31.6,1 l -8.2,-1.4 c 1.4,8.6 1.6,28.9 10.2,37 2.1,1.3 7.1,2.6 9.4,2.3 20.1,1.6 20.4,-14.6 21.7,-33.6 z"/>
      <path
         style="fill:#0044aa"
         d="m 210.1,285.4 c 2.8,-1.3 3.7,-2.8 3.3,-5.6 -1.6,-14.6 -3.9,-31.8 -13.6,-41.3 -5.4,-5.9 -15.6,-8.8 -23.3,-5.2 -3.4,1.7 -7.7,4 -11.9,9.9 -3,4.2 -4.9,8.4 -6.2,17.9 -1.6,9.1 -1.8,15.8 -0.6,23.5 12.8,3.5 33.8,6.7 52.2,0.8 z"/>
      <g id="m9">
        <circle
           r="0"
           cy="314.3"
           cx="188.2"
           id="pivot_m9"
           style="opacity:1;fill:#ff4b00;fill-opacity:1;stroke:none;stroke-width:1;stroke-miterlimit:10;stroke-dasharray:none;stroke-opacity:1" />
        <path
           style="fill:#000000;fill-opacity:1"
           d="m 165.1,395.6 c -4.1,-20.6 -5.4,-50.4 -1.1,-70.1 1.9,-10.5 10.9,-18.4 21,-20 3,-0.6 8.3,-0.1 11.2,0.8 10.4,3.9 12,15.4 13,25 0.4,3.5 -0.4,11.8 -1.9,20.8 -0.5,3.2 -1,6.4 -1.4,9.6 10.2,-2.9 17.2,-2.9 21.9,1.5 5,4.4 9.2,12.5 9.6,18.7 0.1,2.5 -0.1,2.9 -2.2,4.9 -2.6,2.5 -5.3,4.1 -11.9,7.3 -5.1,2.6 -10.1,2.7 -15.7,4 -12.1,0.4 -32.9,1.4 -42.6,-2.5 z"/>
        <path
           style="fill:#1a1a1a"
           d="m 206.1,395 c 5.9,-0.4 12.6,-0.5 16,-4.1 3,-4.3 2.2,-18.8 2.6,-21.6 1.3,-0.2 1.6,0.3 2.1,0.7 1.1,0.8 5.8,11.1 5.8,12.7 0,0.5 0.3,0.8 0.7,0.7 1,-0.3 0.8,-2.1 -0.8,-8.1 -1.7,-6.4 -3.8,-9.4 -8.5,-11.8 -6.7,-2.5 -13,-1.6 -18.1,2.7 -1.3,1.1 -2.9,2 -3.4,1.9 0.5,-2.9 0.3,-3.7 0.7,-6 0.2,-1.4 0.9,-6.3 1.6,-11.1 1.6,-11 1.7,-21.3 0.4,-27.4 -2.2,-9.8 -3.8,-12.4 -9,-14.7 -5.8,-2.6 -14.8,-0.9 -20.3,3.7 -7.9,6.7 -11.4,17.8 -11.7,37.6 -0,7.1 0.1,12.5 0.4,17.6 0.4,7.4 1.3,17.6 1.9,22.3 l 0.4,2.7 2.8,0.3 c 13.4,1.3 24,2.5 36.6,1.8 z"/>
        <path
           d="m 227.7,386.9 c 1.9,-2.1 1.9,-4.6 0,-9.7 -0.2,-0.5 -0.3,-1.1 -0.2,-1.4 0.1,-0.3 -0.2,-0.3 -0.5,-0.1 -0.3,0.2 -0.6,1.8 -0.6,3.4 -0,1.7 -0.4,4.5 -0.9,6.3 -0.5,1.8 -0.9,3.3 -0.9,3.4 -0,0.4 2.2,-1.1 3,-2 z"
           style="fill:#b3b3b3" />
      </g>
    </g>
    <g id="m5">
      <circle
         r="0"
         cy="219.6"
         cx="142.9"
         id="pivot_m5"
         style="opacity:1;fill:#ff4b00;fill-opacity:1;stroke:none;stroke-width:1;stroke-miterlimit:10;stroke-dasharray:none;stroke-opacity:1" />
      <path
         d="m 128.1,240.1 c -13.2,18.1 -23,76.3 -18.6,97.2 4.5,20.9 -6.9,38.9 -21.5,34.9 -20.9,-7.2 -15.7,-19.1 -11.4,-28.4 4.3,-9.3 21.9,-14.1 21.9,-14.1 0,0 -0.2,-62.8 23.5,-94.2 11.5,-13.4 16,-16.9 16,-16.9 0,0 3.4,-2.2 6.3,-1.9 2.5,0.2 4.1,3.4 2.9,5.9 -5.3,2.5 -6,-0.2 -19.1,17.5 z"
         style="fill:#000000;stroke:#000000;stroke-width:0.5;stroke-linecap:round;stroke-linejoin:round;stroke-miterlimit:0.5" />
    </g>
    <g>
      <path
         d="m 166.1,259.5 c -14.7,-6 -28,-16.8 -30.2,-31.3 -0.4,-2.6 -1,-5.1 -1.6,-5.6 -1.9,-1.9 0.6,-11.2 6,-22 2.9,-5.7 3.2,-7.1 1.8,-8.3 -1.2,-1 -1.1,-3 0.1,-3.9 0.8,-0.6 0.9,-0.9 0.3,-1.5 -0.4,-0.4 -0.7,-1.6 -0.7,-2.7 0,-1.6 0.3,-2 1.6,-2.3 0.9,-0.2 1.9,-0.4 2.3,-0.5 0.4,-0.1 0.8,-2.7 1,-6.3 0.5,-8.2 1.7,-15 4.6,-25.6 2.4,-8.9 3.8,-12.2 8.7,-20.7 2.6,-4.5 5.6,-7.5 7.5,-7.5 0.5,0 1.9,-0.8 3,-1.8 10.2,-7.9 22.6,-5.7 31.2,0.8 3.8,2.9 6.7,6.6 9.2,11.5 0.9,1.7 2.6,4.3 3.9,5.6 7.4,8.1 13,21.7 20,48.9 3,11.6 3.3,13.5 3.6,20.8 0.4,10.6 -0,13.2 -2.4,15.4 -1,0.9 -2.2,1.7 -2.6,1.7 -1.7,0 -3.9,2.1 -5.6,5.6 -2.2,4.4 -6.9,11.2 -9.3,13.7 -9.6,9.5 -20.4,15.8 -33.7,17.4 -3.4,0.8 -12.5,0 -18.8,-1.5 z"
         style="fill:#000000;fill-opacity:1" />
      <path
         d="m 221.4,234.7 c 2.4,-5 3.2,-7.1 2.4,-6.6 -1.2,0.7 -4.8,1.3 -15.1,2.4 -6.2,0.7 -24.1,0.6 -31.5,-0.1 -16.8,-1.7 -29.5,-3.6 -34.6,-5.3 -1.4,-0.5 -2.8,-0.8 -3.1,-0.8 -1.2,0 -0.5,5.4 1.3,10 3.9,8.3 10.4,14.3 17.8,18 10.7,5.2 12.8,5.7 23.4,5.5 14.8,0.3 33.7,-12.3 39.4,-23 z"
         style="fill:#0044aa;fill-opacity:1" />
      <path
         d="m 231.1,222.6 c 4.7,-3.8 4.3,-2.9 4.3,-10.2 0.3,-16.3 -5.1,-32.7 -9.9,-47 -3.2,-8.8 -5,-12.9 -9,-19.5 -4.6,-7.7 -12.7,-14.9 -23.1,-20.4 -8.5,-4.7 -22,-5.7 -28.2,0 -0.8,0.8 -3.1,4.6 -5,8.5 -3.2,6.6 -5.8,14.1 -8.5,25.3 -1,4.2 -2.7,18.1 -2.7,22.3 -0,2.5 -0,2.5 -2,2.5 -2.4,0 -3.3,1.1 -1.8,2.1 1.6,1.1 3.2,2.7 3.2,3.3 0,0.3 -0.6,0.5 -1.3,0.5 -0.7,0 -1.7,0.2 -2.1,0.5 -0.7,0.4 -0.6,0.8 0.4,1.8 0.7,0.7 1.3,1.7 1.3,2.2 0,0.5 -1.3,3.5 -2.9,6.7 -4.2,8.3 -5.4,11.5 -5.8,15.7 l -0.4,3.8 4.3,1.3 c 7.1,2.2 18.3,4.2 26.8,4.8 4.4,0.3 9.8,0.8 11.9,1.1 15.3,1.1 39.6,1.6 50.6,-5.2 z"
         style="fill:#0044aa;fill-opacity:1" />
      <path
         style="fill:#1a1a1a"
         d="m 202.6,126 c -2.7,-3.4 -6.9,-5.7 -12.7,-6.9 -4.3,-0.9 -9.4,-1.1 -10.6,-0.3 -0.8,0.5 2.2,1.2 5.2,1.3 2.2,0 11.8,3.9 16.1,6.5 2.1,1.3 3.9,2.3 4,2.4 0.1,0 -0.8,-1.3 -2.1,-2.9 z"/>
    </g>
    <g id="m0">
      <circle
         style="opacity:1;fill:#ff4b00;fill-opacity:1;stroke:none;stroke-width:1;stroke-miterlimit:10;stroke-dasharray:none;stroke-opacity:1"
         id="pivot_m0"
         cx="182.4"
         cy="122.9"
         r="0" />
      <path
         style="fill:#000000;fill-opacity:1"
         d="m 163.9,124.3 c -8.4,-1.4 -12.9,-2.9 -19.5,-6.6 -7.4,-4.1 -11.6,-8 -14.9,-13.6 -4.8,-8.1 -5.3,-15.5 -1.8,-27.8 1.7,-6.1 8.9,-21 11.5,-23.9 l 1.8,-1.9 -0.8,-5.2 c -0.5,-2.8 -1,-7.3 -1.2,-9.9 -0.9,-12.2 5.5,-25.1 15.3,-30.9 3,-1.8 4.4,-2.2 7.8,-2.4 2.8,-0.2 4.8,-0 6.2,0.6 1.9,0.8 2.3,0.7 6.2,-1 C 178.3,0.2 179.3,2.3e-4 184.9,-7.4e-7 191.8,-2.7e-4 195.2,0.7 200.7,3.4 c 7.7,3.8 13.5,8.5 17.9,14.3 4.4,5.9 13.1,22.4 20.4,38.7 3.5,7.9 3.9,8.3 10.2,11.3 2.8,1.3 4.4,1.7 5.7,1.5 1.9,-0.4 10.7,2 14.5,3.9 2.8,1.4 5.3,4 5.3,5.5 -0,2 -1.7,6.4 -3.2,8.4 -0.8,1 -2.3,2.5 -3.5,3.2 -1.6,1.1 -2.2,2 -2.5,3.8 -0.5,3 -4.1,10.1 -5.8,11.2 -0.7,0.5 -1.9,1.4 -2.7,2.1 -1,0.9 -2.2,1.3 -4,1.3 -2.3,0 -2.6,0.2 -2.6,1.3 -0,0.7 -0.6,2.7 -1.4,4.3 -1.6,3.5 -3.8,4.8 -9.5,5.6 -6.9,1 -12.9,0.6 -19.7,-1.2 -0.3,-0.1 -1,-0 -1.5,0.2 -1.5,0.5 -17.3,4.6 -20.5,5.2 -5.1,1.1 -27.7,1.2 -33.8,0.3 z"/>
      <path
         style="fill:#000000"
         d="m 212.5,68.6 c -2.9,-1.1 -5.4,-3.3 -7,-6.5 -1,-1.9 -1.3,-3.4 -1.2,-7.5 0,-4.3 0.3,-5.6 1.6,-8.4 2.1,-4.2 3.9,-5.7 7.1,-5.7 2.1,0 2.8,0.3 4.9,2.6 4.6,4.9 7,11.3 6.6,17.9 -0.2,2.4 -0.6,4.8 -1.1,5.3 -2.1,2.5 -7.3,3.6 -11,2.3 z"/>
      <path
         style="fill:#000000"
         d="m 154.3,53.9 c -0.5,-1.1 -1.1,-3.4 -1.4,-5.2 -0.3,-1.7 -1,-5.2 -1.6,-7.6 -0.7,-3.2 -0.9,-6.1 -0.7,-10.4 0.7,-15.9 8.8,-23.1 19.6,-17.3 6.4,3.4 14.2,11.7 12.2,12.9 -1.3,0.8 -2,0.6 -2.8,-0.6 -0.7,-1.1 -0.8,-1.1 -4.1,-3.5e-4 -5.1,1.7 -9.4,5.4 -12.6,10.8 -2.2,3.7 -4.8,11.3 -5.2,15.5 -0.3,3.3 -0.6,3.9 -1.5,3.9 -0.7,0 -1.4,-0.7 -2,-2 z"/>
      <path
         style="fill:#000000"
         d="m 196.5,43.5 c -0.4,-0.6 1.4,-5.7 3.2,-9.3 4,-7.7 12,-7.6 16.5,0.1 0.4,0.7 0.7,1.4 0.7,1.7 0,0.6 -3.5,0.5 -5,-0.1 -1.8,-0.7 -6.1,0.3 -8.2,2 -1.1,0.8 -2.6,2.5 -3.4,3.8 -1.4,2.3 -3.1,3.1 -3.9,1.8 z"/>
      <path
         style="fill:#1a1a1a"
         d="m 206,119.4 c 5.8,-1.6 8.4,-2.1 8.7,-1.6 0.3,0.4 0.4,0.3 0.4,-0.4 0,-0.6 -0.2,-1 -0.5,-1 -0.3,0 -2,-1.3 -3.8,-2.9 -2.3,-2.1 -3.9,-4.4 -5.8,-8 -2.5,-4.9 -2.6,-5.2 -2.6,-11.1 -0.2,-12.8 4.1,-18 18.5,-22.7 3.4,-1.1 7.2,-2.3 8.6,-2.6 3.6,-0.9 9.3,-3.7 9.3,-4.5 0,-0.7 -3.2,-8 -7.6,-17.7 C 228.1,39.7 220.9,26.5 217.2,21 208.3,8.4 190,-1.2 175.7,4 c -2.2,1 -2.3,1.1 -1.2,1.8 2.4,1.3 9.5,7.5 11.1,9.6 1.6,2 1.7,3.3 0.3,3.3 -0.4,0 -1.5,-0.9 -2.5,-2 -5.7,-5.4 -15,-13.5 -22.7,-12.2 -3.9,0.9 -6.7,2.7 -10.1,6.3 -5.8,6.3 -8.6,13.9 -8.6,23.3 0,10.8 2.2,19 6.6,26 2.1,3.3 2.1,3.6 0.4,3.4 -3.3,-2.4 -4.6,-5.2 -6.6,-9.1 -0.5,-1.4 -2.4,1.5 -6.9,10.5 -5.3,10.6 -7,16 -7.6,23.6 -0.6,8.3 1.9,15.1 7.5,20.7 19.9,15.9 46.6,16.6 70.4,10.1 z"/>
      <path
         style="fill:#ffffff"
         d="m 219.8,66.3 c 2.8,-1 3,-1.5 0.7,-1.1 -3.2,0.5 -5.3,-0.7 -8.5,-4.9 -3.1,-4.7 -2.5,-12.1 2,-14.7 2,-1.1 1.3,-3.3 -0.1,-3.3 -2.9,0 -7.7,3.8 -7.8,10.9 -0,7.3 3.7,13.9 8.9,13.9 1.4,0 3.5,-0.4 4.8,-0.9 z"/>
      <path
         style="fill:#000000;fill-opacity:1"
         d="m 220.4,60.9 c 1.9,-4.9 -3.7,-17.5 -7.5,-12.1 -1.9,3.9 0.7,14.9 5.4,14 0.8,-0.2 1.7,-1 2.1,-1.9 z"/>
      <path
         style="fill:#b3b3b3"
         d="m 157.8,40.9 c 3.3,-8.4 9.2,-14.6 15.8,-16.7 1.8,-0.6 3.5,-1.2 3.7,-1.4 0.7,-0.6 -5.7,-6.1 -9.3,-7.9 -6.7,-3.4 -10.4,-1.3 -13.2,7.4 -1.1,3.6 -1.5,6 -1.5,10.1 0,5.4 1.5,14.1 2.3,13.2 0.2,-0.3 1.2,-2.4 2.1,-4.6 z"/>
      <path
         style="fill:#b3b3b3"
         d="m 208.8,33.8 c 2.2,-0 4,-0.1 4,-0.3 0,-0.1 -0.6,-0.9 -1.3,-1.6 -1.9,-2 -4.2,-1.8 -6.9,0.8 -1.3,1.3 -1.7,1.9 -1,1.6 0.7,-0.3 3,-0.5 5.2,-0.5 z"/>
      <path
         style="fill:#b3b3b3"
         d="m 246.6,112.6 c 0.7,-1.6 1.2,-3.2 1.2,-3.6 -0,-0.4 -2.4,-1.4 -5.2,-2.3 -5.7,-1.8 -9.8,-4.2 -11.4,-6.6 l -1,-1.6 -1.4,3.3 c -1.5,3.5 -2.3,4.2 -2.3,2 5e-4,-2.3 3.4,-8.6 6,-11.1 2.8,-2.6 3,-2.7 4.1,-1.5 0.8,1 0.4,2.1 -0.8,2.1 -0.4,0 -1.5,0.8 -2.4,1.8 -1.5,1.6 -1.6,1.9 -1,3.1 1.6,2.9 12.5,7.4 18.7,7.7 2.6,0.1 3.4,-0.1 5.4,-1.8 2.3,-1.9 6.2,-8 6.2,-9.9 0.2,-1.3 0.4,-1.8 -0.6,-2.1 -1.7,0 -5.6,-3.8 -7.6,-7.3 -2.6,-4.5 -3.8,-9.9 -2.7,-12.4 0.3,-0.8 0.2,-1 -0.6,-1 -0.6,0 -3,-1 -5.5,-2.1 l -4.4,-2.1 c -8.1,4.8 -17.4,5.8 -26.3,9.5 -7.1,3.1 -10.9,10.6 -10.1,19.7 1,10.8 7.4,18.1 18.5,20.9 7.3,0.6 20.1,2.8 23.3,-4.6 z"/>
      <path
         style="fill:#000000"
         d="m 265.1,87.6 c 3.6,-2.4 7.2,-8.3 6.3,-10.5 -0.2,-0.4 -2.9,-1.7 -6.1,-2.7 -8.6,-2.9 -10.3,-2.2 -10.3,3.8 0,4.3 4,11 6.6,11 0.6,0 2.1,-0.7 3.4,-1.6 z"/>
    </g>
    <g id="m6">
      <circle
         style="opacity:1;fill:#ff4b00;fill-opacity:1;stroke:none;stroke-width:1;stroke-miterlimit:10;stroke-dasharray:none;stroke-opacity:1"
         id="pivot_m6"
         cx="179.9"
         cy="237"
         r="0" />
      <path
         style="fill:#000000;fill-opacity:1"
         d="m 168.4,331.4 c -12.6,-3 -11.4,-34.6 -11.9,-45.8 l -4.2,-1 c -1.8,-0.4 -2.5,-1 -2.7,-1.3 -0.3,-0.5 -0.7,-6.1 -1,-17.1 1.4,-22.4 11.3,-35.4 31.9,-35.5 25.5,1.3 30,33.3 27.5,51.1 -0.6,5.3 -1.8,5.8 -6.9,5.8 3.1,-2.9 2.5,-0.1 2.7,2.5 -0.9,16.1 -4.3,35 -14.1,40.2 -4.3,1.6 -17.3,2.3 -21.4,1.1 z"/>
      <path
         style="fill:#1a1a1a;fill-opacity:1"
         d="m 189.2,328.8 c 9.3,-4.9 15.1,-37.1 12,-40.9 -14.8,0.6 -29.1,0.6 -42.2,-2.1 -0.8,11.2 0.9,37.3 7,42.3 5.8,4.8 21.9,1.1 23.3,0.7 z"/>
      <path
         style="fill:#0044aa;fill-opacity:1"
         d="m 205,284.7 c 6,-23.8 -4.5,-54.2 -28.9,-52 -25.3,3 -26.8,32.9 -24.8,49.1 3.2,3.6 49.4,7.1 53.7,2.9 z"/>
      <g id="m7">
        <circle
           r="0"
           cy="317.6"
           cx="179.6"
           id="pivot_m7"
           style="opacity:1;fill:#ff4b00;fill-opacity:1;stroke:none;stroke-width:1;stroke-miterlimit:10;stroke-dasharray:none;stroke-opacity:1" />
        <path
           style="fill:#000000;fill-opacity:1"
           d="m 191,399.6 c -3.8,-0.2 -9.4,-1 -12.5,-1.7 -3.1,-0.7 -7.5,-1.5 -9.8,-1.9 -7.5,-1.2 -8.5,-1.7 -9.2,-4.3 -2.2,-11.8 -2.8,-24.6 -3.2,-35.4 0.2,-11.6 1.2,-24 4.1,-33.7 3.1,-8.1 10.8,-12.3 19.3,-12.6 11,0.2 17.9,8.4 20.5,17 1.4,4.7 2,18 0.7,27.3 -0.6,3.9 -1.1,7.5 -1.3,8.1 -0.4,1.3 1.1,1 2.8,0.7 8,-2.2 18.3,-0.5 23.7,5.8 3,3.7 3.8,5.1 5.2,9.7 1.5,4.8 1.9,16 0.5,17.6 -0.4,0.5 -3.5,1.5 -7,2.3 -7,1.5 -21.5,2 -33.8,1.2 z"/>
        <path
           style="fill:#1a1a1a;fill-opacity:1"
           d="m 215.2,396.8 c 3.5,-5.5 5.8,-14.7 4.2,-19.9 -0.2,-1.2 0.1,-1.4 0.7,-2 1.1,-0.7 1.4,-0.5 2.8,1 2.2,2.4 3.5,6.2 4.3,12.4 0.9,6.7 1,7.1 1.7,6 1.1,-1.7 0.7,-12 -0.6,-15.7 -4.5,-13.4 -17,-15.4 -28.6,-11.9 -3.5,1.1 -4.5,0.6 -3.6,-2.1 1.8,-5.6 3.3,-30 2.2,-35.2 -1.3,-5.8 -4.9,-11.4 -8.9,-13.8 -4.3,-2.5 -7,-3.2 -11.8,-3 -3.7,0.2 -4.7,0.5 -7.6,2.4 -6.3,4.1 -8.4,9.1 -9.8,23.8 -1.2,12.7 -1.4,36.1 -0.3,42.3 0.4,2.4 0.9,5.2 1.1,6.2 0.5,3 0.8,3.7 1.9,3.7 16.2,3.8 31.3,6.7 48.2,6.4 2.1,-0.1 3.9,-0.4 4,-0.8 z"/>
        <path
           d="m 223.9,395.9 c 0.9,-0.5 1.1,-1.2 0.9,-3.9 -0.2,-4.3 -1.7,-10.6 -2.3,-9.5 -0.2,0.4 -0.6,2.6 -0.8,4.8 -0.2,2.2 -0.9,5.2 -1.6,6.6 -0.7,1.5 -1.2,2.8 -1.2,3 0,0.4 3.6,-0.3 4.9,-1 z"
           style="fill:#b3b3b3;fill-opacity:1" />
      </g>
    </g>
    <g id="m1">
      <circle
         style="opacity:1;fill:#ff4b00;fill-opacity:1;stroke:none;stroke-width:1;stroke-miterlimit:10;stroke-dasharray:none;stroke-opacity:1"
         id="pivot_m1"
         cx="182.3"
         cy="136.6"
         r="0" />
      <path
         style="fill:#000000;fill-opacity:1"
         d="m 179.2,206.4 c -3.3,-1.3 -5.9,-3.4 -7.4,-5.8 -1.7,-2.8 -3,-11.2 -3,-20 0,-6.2 -0.1,-7 -1,-7 -4.3,-1.4 -6.7,-2.3 -6.5,-5.3 0.9,-13.7 9,-40.4 22.5,-38.8 12.1,2.7 16.4,26.6 16.5,36.8 0,6.5 -0.2,6.8 -1.8,7.1 -1.9,0.3 -2.3,0.5 -2.7,5.6 -1,14.9 -3.9,24.6 -7.8,26.7 -2.9,1.5 -6.2,1.8 -8.9,0.7 z"/>
      <path
         style="fill:#1a1a1a;fill-opacity:1"
         d="m 187,202.8 c 0.7,-0.4 1.8,-2.1 2.6,-3.8 2.6,-6.1 4.8,-25.4 2.8,-24.6 -2.2,0.9 -6.7,1 -13.4,0.5 -4.1,-0.3 -7.5,-0.5 -7.6,-0.4 -0.5,0.5 -0.2,13.7 0.4,17.8 0.8,5 1.3,6.5 2.9,8 4.2,3.9 8.2,4.7 12.3,2.5 z"/>
      <path
         style="fill:#0044aa;fill-opacity:1"
         d="m 197.3,170.9 c 1.4,-3 1.2,-9.9 -1.2,-19.5 -2.2,-8.4 -6.1,-16.2 -8.7,-17.8 -15.4,-10.2 -23.3,24.6 -23.9,34.6 0,1.6 4.4,2.6 17.8,4 6.3,0.4 10.9,-0.1 16,-1.3 z"/>
      <g id="m2">
        <circle
           r="0"
           cy="195.4"
           cx="181.5"
           id="pivot_m2"
           style="opacity:1;fill:#ff4b00;fill-opacity:1;stroke:none;stroke-width:1;stroke-miterlimit:10;stroke-dasharray:none;stroke-opacity:1" />
        <path
           style="fill:#000000;fill-opacity:1"
           d="m 175.9,282.9 c -6,-2.1 -9.2,-4.1 -14.2,-8.8 -3.3,-3.2 -6.5,-7.9 -6.1,-9 4.8,-1.1 9.8,-2.4 13,-5.1 4.4,-3.8 4.6,-7.1 1.7,-27.6 -1.3,-11.1 -3.1,-29.8 1.3,-37.6 3.1,-4.9 7.8,-7.2 12.2,-5.9 9,3.5 10.5,12.9 11.2,18 1.5,10 1.6,15 0.6,26.6 -1.6,12.3 0.2,26 -3.1,37.5 -3,10.4 -9,14.6 -16.7,12 z"/>
        <path
           style="fill:#1a1a1a;fill-opacity:1"
           d="m 191.6,263.5 c 1.6,-17.1 4.2,-38.6 2.5,-53.8 -1.1,-5.9 -3.5,-19 -12.8,-19.1 -8.6,0.2 -10.1,10.6 -10.4,16.2 -0.2,4.8 0.9,20.5 1.8,26.8 1.7,11 2.4,21.4 1.7,23.7 -1.4,4.3 -6.8,8.7 -11.9,9.7 l -3.5,0.7 1.3,1.4 c 5.2,5.8 8.2,7.9 15.6,10.8 10.8,2.6 15,-8 15.8,-16.5 z"/>
      </g>
    </g>
    <text
       xml:space="preserve"
       style="font-style:normal;font-variant:normal;font-weight:normal;font-stretch:condensed;font-size:16.3px;line-height:125%;font-family:'Arial Narrow';-inkscape-font-specification:'Arial Narrow, Condensed';text-align:start;letter-spacing:-1px;word-spacing:0px;writing-mode:lr-tb;text-anchor:start;fill:#ffffff;fill-opacity:1;stroke:none;stroke-width:1px;stroke-linecap:butt;stroke-linejoin:miter;stroke-opacity:1;"><path
         style="fill:none;fill-rule:evenodd;stroke:none;stroke-width:1px;stroke-linecap:butt;stroke-linejoin:miter;stroke-opacity:1"
         d="m 199.8,168.1 c 17.6,-0.4 19.6,-1.5 31.9,-4.3"/><textPath
         xlink:href="#path3392"><tspan>PAN</tspan></textPath></text>
  </g>
</svg>
